<svg xmlns="http://www.w3.org/2000/svg" xmlns:xlink="http://www.w3.org/1999/xlink" width="512" zoomAndPan="magnify" viewBox="0 0 384 384" height="512" preserveAspectRatio="xMidYMid meet" version="1.0"><defs><g/><clipPath id="83d9ffe43e"><path d="M165.736 84.088L186.472 84.088L186.472 123.256L165.736 123.256ZM165.736 84.088" clip-rule="nonzero"/></clipPath><clipPath id="7cf72d3feb"><path d="M194.68 84.088L215.416 84.088L215.416 123.256L194.68 123.256ZM194.68 84.088" clip-rule="nonzero"/></clipPath></defs><g fill="#ffffff" fill-opacity="1"><g transform="translate(107.085936, 271.250008)"><g><path d="M147.808 -110.944L117.184 -110.944L112.336 -132.032C109.22 -134.528 105.288 -136.608 100.544 -138.272C95.808 -139.944 90.576 -140.784 84.848 -140.784C76.824 -140.784 70.468 -138.984 65.776 -135.392C61.092 -131.796 58.752 -127.288 58.752 -121.872C58.752 -116.772 60.992 -112.528 65.472 -109.136C69.952 -105.752 78.904 -102.76 92.336 -100.16C113.272 -95.988 128.792 -89.864 138.896 -81.792C149.008 -73.716 154.064 -62.596 154.064 -48.432C154.064 -33.232 147.524 -20.808 134.448 -11.168C121.38 -1.536 104.168 3.28 82.816 3.28C69.792 3.28 57.832 1.38 46.944 -2.416C36.064 -6.224 26.404 -11.668 17.968 -18.752L17.504 -56.72L49.376 -56.72L55.632 -34.688C58.328 -32.392 62.02 -30.696 66.704 -29.6C71.396 -28.512 76.296 -27.968 81.408 -27.968C90.676 -27.968 97.732 -29.632 102.576 -32.96C107.416 -36.296 109.84 -40.832 109.84 -46.56C109.84 -51.56 107.392 -55.888 102.496 -59.536C97.6 -63.184 88.592 -66.408 75.472 -69.216C55.576 -73.28 40.548 -79.296 30.384 -87.264C20.228 -95.232 15.152 -106.088 15.152 -119.84C15.152 -134.004 20.984 -146.216 32.656 -156.48C44.324 -166.74 60.936 -171.872 82.496 -171.872C95.624 -171.872 108.048 -170.1 119.76 -166.56C131.48 -163.016 140.676 -158.488 147.344 -152.976ZM147.808 -110.944"/></g></g></g><g clip-path="url(#83d9ffe43e)"><path fill="#ffffff" d="M165.736 84.096L186.472 84.096L186.472 123.252L165.736 123.252L165.736 84.096" fill-opacity="1" fill-rule="nonzero"/></g><g clip-path="url(#7cf72d3feb)"><path fill="#ffffff" d="M194.68 84.096L215.416 84.096L215.416 123.252L194.68 123.252L194.68 84.096" fill-opacity="1" fill-rule="nonzero"/></g></svg>