<svg xmlns="http://www.w3.org/2000/svg" xmlns:xlink="http://www.w3.org/1999/xlink" width="500" zoomAndPan="magnify" viewBox="0 0 375 374.999991" height="500" preserveAspectRatio="xMidYMid meet" version="1.0"><defs><g/><clipPath id="b46b7337e1"><path d="M 161.851562 82.117188 L 182.101562 82.117188 L 182.101562 120.367188 L 161.851562 120.367188 Z M 161.851562 82.117188 " clip-rule="nonzero"/></clipPath><clipPath id="953f381ad2"><path d="M 190.117188 82.117188 L 210.367188 82.117188 L 210.367188 120.367188 L 190.117188 120.367188 Z M 190.117188 82.117188 " clip-rule="nonzero"/></clipPath></defs><rect x="-37.5" width="450" fill="#ffffff" y="-37.499999" height="449.999989" fill-opacity="1"/><rect x="-37.5" width="450" fill="#ffffff" y="-37.499999" height="449.999989" fill-opacity="1"/><rect x="-37.5" width="450" fill="#000000" y="-37.499999" height="449.999989" fill-opacity="1"/><g fill="#ffffff" fill-opacity="1"><g transform="translate(107.085936, 271.250008)"><g><path d="M 144.34375 -108.34375 L 114.4375 -108.34375 L 109.703125 -128.9375 C 106.660156 -131.375 102.820312 -133.40625 98.1875 -135.03125 C 93.5625 -136.664062 88.453125 -137.484375 82.859375 -137.484375 C 75.023438 -137.484375 68.816406 -135.726562 64.234375 -132.21875 C 59.660156 -128.707031 57.375 -124.304688 57.375 -119.015625 C 57.375 -114.035156 59.5625 -109.890625 63.9375 -106.578125 C 68.3125 -103.273438 77.054688 -100.351562 90.171875 -97.8125 C 110.617188 -93.738281 125.773438 -87.757812 135.640625 -79.875 C 145.515625 -71.988281 150.453125 -61.128906 150.453125 -47.296875 C 150.453125 -32.453125 144.066406 -20.320312 131.296875 -10.90625 C 118.535156 -1.5 101.726562 3.203125 80.875 3.203125 C 68.15625 3.203125 56.476562 1.347656 45.84375 -2.359375 C 35.21875 -6.078125 25.785156 -11.394531 17.546875 -18.3125 L 17.09375 -55.390625 L 48.21875 -55.390625 L 54.328125 -33.875 C 56.960938 -31.632812 60.566406 -29.976562 65.140625 -28.90625 C 69.722656 -27.84375 74.507812 -27.3125 79.5 -27.3125 C 88.550781 -27.3125 95.441406 -28.9375 100.171875 -32.1875 C 104.898438 -35.445312 107.265625 -39.875 107.265625 -45.46875 C 107.265625 -50.351562 104.875 -54.578125 100.09375 -58.140625 C 95.3125 -61.703125 86.515625 -64.851562 73.703125 -67.59375 C 54.273438 -71.5625 39.597656 -77.4375 29.671875 -85.21875 C 19.753906 -93 14.796875 -103.601562 14.796875 -117.03125 C 14.796875 -130.863281 20.492188 -142.789062 31.890625 -152.8125 C 43.285156 -162.832031 59.507812 -167.84375 80.5625 -167.84375 C 93.382812 -167.84375 105.515625 -166.113281 116.953125 -162.65625 C 128.398438 -159.195312 137.378906 -154.773438 143.890625 -149.390625 Z M 144.34375 -108.34375 "/></g></g></g><g clip-path="url(#b46b7337e1)"><path fill="#ffffff" d="M 161.851562 82.125 L 182.101562 82.125 L 182.101562 120.363281 L 161.851562 120.363281 L 161.851562 82.125 " fill-opacity="1" fill-rule="nonzero"/></g><g clip-path="url(#953f381ad2)"><path fill="#ffffff" d="M 190.117188 82.125 L 210.367188 82.125 L 210.367188 120.363281 L 190.117188 120.363281 L 190.117188 82.125 " fill-opacity="1" fill-rule="nonzero"/></g></svg>